<svg version="1.1" id="Layer_1" xmlns="http://www.w3.org/2000/svg" xmlns:xlink="http://www.w3.org/1999/xlink" x="0px" y="0px"
	 width="100%" viewBox="0 0 448 464" enable-background="new 0 0 448 464" xml:space="preserve">
<path fill="#000000" opacity="1.000000" stroke="none" 
	d="
M46.022522,255.587784 
	C45.526718,238.815948 44.920483,222.444168 48.011753,206.338379 
	C54.152569,174.344223 67.436241,145.631241 88.688927,120.763840 
	C112.166870,93.292702 141.356506,74.351006 175.960220,64.441750 
	C197.597412,58.245647 219.734497,55.852779 242.558624,58.221935 
	C269.754944,61.044922 294.783813,69.336983 318.300934,82.814262 
	C321.411469,84.596870 323.309662,83.851974 325.628876,81.504326 
	C337.568726,69.418060 349.670166,57.491653 361.664185,45.458546 
	C364.120239,42.994450 366.627991,40.691177 370.365570,42.202591 
	C373.993439,43.669647 374.619080,47.110710 374.867737,50.498894 
	C375.635010,60.953037 376.363373,71.411079 376.964355,81.875793 
	C377.165619,85.379990 378.751984,86.855019 382.226227,87.048851 
	C391.692810,87.577019 401.147827,88.311905 410.608063,88.955421 
	C412.268951,89.068405 413.954712,88.997551 415.590668,89.254929 
	C418.330566,89.685974 420.846985,90.796539 421.854431,93.577690 
	C422.928009,96.541420 421.805023,99.042747 419.597626,101.234421 
	C410.020935,110.742973 400.499146,120.306808 390.960083,129.853226 
	C388.016174,132.799454 385.231110,135.927094 382.096008,138.652710 
	C379.384796,141.009796 379.477814,143.094269 381.237427,145.986023 
	C389.237396,159.133438 395.458038,173.142227 399.492737,187.964752 
	C404.932159,207.947922 407.701752,228.253830 406.261810,249.115280 
	C403.724182,285.880249 391.490173,318.931183 369.054657,348.067169 
	C345.826416,378.232635 315.839172,399.163422 279.557312,410.552887 
	C253.838348,418.626495 227.401688,420.822876 200.657959,416.536469 
	C132.965881,405.686920 86.181137,367.820435 58.585785,305.669678 
	C51.601738,289.940033 48.333549,273.071960 46.022522,255.587784 
M245.477768,404.920105 
	C252.674011,404.623535 259.705139,403.029846 266.592407,401.264008 
	C299.173370,392.910309 327.219208,376.659332 349.931732,351.706299 
	C383.678802,314.630219 397.450043,270.577881 393.440857,221.105789 
	C391.560638,197.904831 384.262390,175.888428 372.754517,155.465881 
	C371.981049,154.093201 371.454041,152.320892 368.682526,151.215683 
	C365.935211,153.634933 363.786499,156.620926 361.332611,159.330566 
	C359.414703,161.448441 357.096405,163.060318 353.877533,162.482025 
	C346.518097,161.159836 339.127045,160.009460 331.778931,158.629166 
	C316.611298,155.780029 316.749695,155.868057 305.649872,166.904022 
	C302.403107,170.132065 302.584961,172.214600 305.307526,175.590881 
	C319.243042,192.872452 326.525604,212.865204 327.079376,234.923828 
	C327.823059,264.546722 317.600769,290.273895 296.021301,310.660553 
	C267.687317,337.428406 233.858368,345.881683 196.749268,334.605133 
	C161.323837,323.840210 138.285431,299.481171 128.314148,263.392029 
	C122.328987,241.729935 123.779091,220.312820 132.423981,199.855179 
	C146.264084,167.103348 171.017609,146.678864 205.810425,138.902084 
	C222.204102,135.237808 238.480728,136.246735 254.620514,141.114426 
	C267.578400,145.022476 279.159851,151.307861 289.772766,159.576797 
	C291.123596,160.629257 292.603699,162.500153 294.523682,160.643173 
	C298.712402,156.591934 302.789825,152.424637 306.870148,148.263062 
	C307.753418,147.362183 307.755463,146.119354 307.555695,144.948441 
	C305.710754,134.133011 304.103760,123.266609 301.845398,112.537552 
	C301.017303,108.603340 301.726105,105.769745 304.251038,102.982262 
	C306.890839,100.068001 310.063690,97.590759 312.134430,93.919411 
	C311.303528,93.273987 310.710205,92.701508 310.019867,92.293083 
	C289.197968,79.975319 266.553711,72.649422 242.639862,70.578308 
	C220.890930,68.694702 199.176117,70.173386 177.988678,76.791656 
	C134.648239,90.329788 101.586426,116.559128 79.156235,155.986191 
	C67.753624,176.029312 61.649143,197.702469 58.735420,220.654510 
	C56.184982,240.744873 58.155434,260.268585 62.932209,279.501160 
	C69.786110,307.096802 83.117233,331.514709 102.557846,352.415619 
	C125.519707,377.102264 153.427063,393.772644 186.165878,401.466034 
	C205.261551,405.953461 224.808273,408.764221 245.477768,404.920105 
M256.901733,198.401062 
	C265.918182,189.401398 274.934662,180.401749 283.958954,171.394241 
	C252.734039,142.027328 195.175598,139.577408 159.910843,178.755112 
	C126.703537,215.647064 129.760468,275.188416 171.127060,307.846375 
	C210.740845,339.120605 270.171448,331.219391 299.765778,287.380402 
	C325.396790,249.412338 314.985138,201.540649 292.466705,180.549561 
	C291.611816,181.290375 290.692261,181.993866 289.880127,182.804916 
	C277.385651,195.282684 264.906738,207.776077 252.420792,220.262390 
	C245.118286,227.565079 237.870895,234.924515 230.472412,242.128708 
	C227.694717,244.833435 224.553101,245.091675 221.688034,242.046738 
	C219.025330,239.216904 219.391159,236.365860 221.848801,233.604233 
	C222.512543,232.858444 223.219452,232.149887 223.925140,231.442780 
	C234.750443,220.595383 245.578842,209.751099 256.901733,198.401062 
M353.047638,71.547470 
	C341.150726,83.416534 329.251007,95.282814 317.360291,107.158073 
	C315.833191,108.683205 313.992218,110.164566 314.401611,112.630402 
	C316.032227,122.451782 317.739655,132.260681 319.478363,142.063629 
	C319.824310,144.014114 321.356903,144.520889 323.158356,144.798447 
	C331.842926,146.136536 340.565186,147.317291 349.161987,149.095520 
	C352.673859,149.821960 354.768097,148.743896 357.034119,146.463959 
	C370.641571,132.772949 384.344452,119.176811 397.956177,105.490013 
	C399.145355,104.294304 401.048492,103.401894 400.843384,101.229752 
	C400.501923,100.977783 400.252014,100.634804 399.978088,100.614433 
	C393.185425,100.109406 386.397034,99.459969 379.593964,99.199844 
	C366.655090,98.705109 365.318115,97.497566 364.882935,84.801659 
	C364.865814,84.302681 364.874542,83.801468 364.830261,83.304955 
	C364.222321,76.489067 363.607178,69.673813 362.993835,62.858406 
	C362.485352,62.619015 361.976868,62.379620 361.468384,62.140228 
	C358.820953,65.102531 356.173523,68.064835 353.047638,71.547470 
z"/>
</svg>